<svg width="418" height="272" viewBox="0 0 418 272" fill="none" xmlns="http://www.w3.org/2000/svg">
<g clip-path="url(#clip0_14_310)">
<path d="M381.698 177.058C377.36 178.658 369.741 179.972 360.924 181.028C336.949 183.903 304.095 184.92 304.095 184.92C304.095 184.92 135.201 198.911 8.62932 146.736C8.62932 146.736 -9.78042 137.07 7.30159 124.068C9.93197 122.126 12.7283 120.419 15.6581 118.968L15.8668 118.759C17.8099 116.962 19.9096 115.342 22.141 113.92C28.6993 109.677 39.7729 104.647 53.2514 106.93L385.697 160.819C385.697 160.819 397.837 171.092 381.698 177.058Z" fill="#FFBA08"/>
<path d="M315.462 152.65L385.068 103.231L415.741 108.548L385.697 160.819C385.697 160.819 316.259 161.362 315.462 152.65Z" fill="#FFBA08"/>
<path d="M140.249 122.586L278.887 83.6913L301.231 88.371L238.604 116.56L219.029 138.477L140.249 122.586Z" fill="#FFBA08"/>
<path d="M360.924 181.028C336.949 183.903 304.095 184.92 304.095 184.92C304.095 184.92 135.201 198.911 8.62933 146.736C8.62933 146.736 -9.78041 137.07 7.3016 124.068L7.35927 124.308C7.35927 124.308 34.669 142.794 165.167 158.245L360.924 181.028Z" fill="#F5F8FA"/>
<path d="M338.641 179.957L400.615 205.302L416.185 203.576L379.119 175.676C379.119 175.676 334.279 166.089 338.641 179.957Z" fill="#FFBA08"/>
<path d="M29.8326 127.019C26.8757 127.068 20.1016 122.102 15.889 118.759C17.832 116.962 19.9318 115.342 22.1632 113.92C25.5591 116.529 31.6008 120.753 34.9617 120.589C39.8143 120.39 34.2857 126.94 29.8326 127.019Z" fill="#F5F8FA"/>
<path d="M311.378 267.522L271.585 269.599L159.718 194.058L138.951 180.031L128.865 173.216C147.795 157.219 225.011 179.301 225.011 179.301C226.489 180.55 226.959 182.625 226.892 184.919C226.763 189.212 224.746 194.252 223.969 196.065C223.782 196.509 223.667 196.745 223.667 196.745L311.378 267.522Z" fill="#FFBA08"/>
<path d="M375.266 76.8201L368.361 81.1922L372.545 73.5795C371.361 72.6334 369.895 72.1092 368.38 72.0898L368.269 72.0898C367.791 72.0991 367.312 72.0633 366.84 71.9829L364.504 73.4669L365.504 71.6449C363.849 71.0632 362.42 69.9743 361.42 68.5329L357.241 71.1989L359.879 66.3904C357.438 63.4521 354.144 61.6515 350.517 61.6508C346.17 61.65 342.298 64.236 339.798 68.2712C339.057 69.4795 338.009 70.4697 336.761 71.1409C335.513 71.812 334.11 72.1403 332.694 72.0921L332.463 72.0921C327.664 72.0912 323.773 77.535 323.772 84.2551C323.771 90.9752 327.659 96.4205 332.459 96.4213C333.513 96.4182 334.551 96.1575 335.482 95.6619C337.116 94.8686 338.903 94.4397 340.719 94.4047C342.535 94.3698 344.336 94.7296 346 95.4594C347.405 96.0917 348.928 96.4206 350.468 96.4247C352.009 96.4288 353.533 96.108 354.941 95.4833C356.591 94.7678 358.376 94.4155 360.173 94.4503C361.971 94.4852 363.74 94.9063 365.361 95.6852C366.287 96.1688 367.314 96.4235 368.358 96.428C373.157 96.4289 377.048 90.9851 377.049 84.265C377.088 81.6729 376.474 79.1127 375.266 76.8201V76.8201Z" fill="#F5F8FA"/>
<path opacity="0.03" d="M362.276 94.618C359.769 94.1426 357.178 94.4237 354.831 95.4255C353.425 96.0553 351.902 96.3807 350.362 96.3804C348.822 96.3801 347.299 96.0541 345.893 95.4238C344.23 94.692 342.428 94.3311 340.612 94.366C338.796 94.401 337.009 94.831 335.376 95.6263C334.442 96.1205 333.403 96.381 332.348 96.3858C328.085 96.385 324.539 92.082 323.803 86.4107C324.656 85.7909 325.38 85.0105 325.934 84.1133C328.435 80.0826 332.307 77.4966 336.653 77.4974C341 77.4982 344.831 80.0323 347.325 84.0328C348.071 85.2419 349.118 86.2366 350.363 86.92C351.608 87.6033 353.008 87.952 354.428 87.932L354.539 87.932C357.909 87.9237 360.847 90.6443 362.276 94.618Z" fill="black"/>
<path d="M90.2295 61.0383L86.7883 63.2199L88.8757 59.4247C88.286 58.9501 87.5545 58.6871 86.798 58.6776L86.7447 58.6776C86.5054 58.68 86.2663 58.6622 86.0299 58.6241L84.8666 59.3617L85.364 58.4729C84.5387 58.1833 83.8256 57.6403 83.3265 56.9214L81.244 58.2544L82.5763 55.859C82.0226 55.1419 81.3161 54.5574 80.5082 54.1482C79.7003 53.739 78.8114 53.5154 77.9062 53.4937C75.7396 53.4933 73.8081 54.7818 72.5779 56.795C72.2077 57.3993 71.6836 57.8942 71.0595 58.2291C70.4353 58.5641 69.7335 58.7269 69.0258 58.701L68.9104 58.701C66.5173 58.7005 64.5767 61.4202 64.5761 64.7714C64.5755 68.1225 66.5151 70.8385 68.9081 70.8389C69.4344 70.8373 69.9525 70.7078 70.4177 70.4614C71.2327 70.0644 72.1242 69.8498 73.0304 69.8323C73.9366 69.8148 74.8358 69.9949 75.6655 70.3602C76.3642 70.6713 77.1205 70.8321 77.8852 70.8322C78.65 70.8324 79.4063 70.6718 80.1052 70.361C80.9284 70.0037 81.8188 69.8279 82.7159 69.8458C83.6129 69.8636 84.4957 70.0745 85.3041 70.4642C85.7653 70.7032 86.2764 70.8297 86.7957 70.8333C89.1888 70.8338 91.1294 68.1186 91.13 64.7674C91.1471 63.4684 90.8374 62.186 90.2295 61.0383Z" fill="#F5F8FA"/>
<path opacity="0.03" d="M83.7503 69.9172C82.4991 69.6771 81.2048 69.8177 80.0342 70.321C79.3347 70.63 78.5788 70.7903 77.8142 70.7917C77.041 70.7913 76.2767 70.626 75.5723 70.3068C74.742 69.9431 73.8428 69.7642 72.9368 69.7825C72.0307 69.8007 71.1394 70.0157 70.3245 70.4125C69.8609 70.6588 69.3443 70.7884 68.8194 70.79C66.6927 70.7896 64.9217 68.6426 64.5537 65.8158C64.978 65.5043 65.3396 65.1153 65.6195 64.6693C66.863 62.6562 68.7945 61.3677 70.9477 61.368C73.101 61.3684 75.0232 62.6444 76.2748 64.6313C76.6478 65.2355 77.1713 65.7323 77.7939 66.0729C78.4165 66.4135 79.1168 66.5862 79.8262 66.5742L79.8839 66.5742C81.5577 66.5745 83.0359 67.9348 83.7503 69.9172Z" fill="black"/>
<path d="M235.87 15.9045L228.965 20.2766L233.149 12.664C231.965 11.7178 230.499 11.1937 228.984 11.1743L228.873 11.1742C228.395 11.1835 227.916 11.1477 227.444 11.0673L225.108 12.5514L226.108 10.7293C224.453 10.1477 223.024 9.05875 222.024 7.61737L217.845 10.2833L220.483 5.47484C218.042 2.53657 214.748 0.735928 211.121 0.735258C206.774 0.734455 202.903 3.32044 200.402 7.3556C199.661 8.56396 198.613 9.55412 197.365 10.2253C196.117 10.8965 194.714 11.2247 193.298 11.1766L193.067 11.1765C188.268 11.1756 184.378 16.6194 184.376 23.3395C184.375 30.0596 188.263 35.5049 193.063 35.5058C194.117 35.5026 195.155 35.2419 196.086 34.7463C197.72 33.9531 199.507 33.5242 201.323 33.4892C203.139 33.4542 204.94 33.814 206.604 34.5438C208.009 35.1761 209.532 35.505 211.072 35.5091C212.613 35.5132 214.137 35.1925 215.546 34.5677C217.195 33.8522 218.98 33.4999 220.777 33.5348C222.575 33.5696 224.344 33.9907 225.965 34.7696C226.891 35.2532 227.918 35.5079 228.962 35.5124C233.762 35.5133 237.652 30.0695 237.653 23.3494C237.692 20.7573 237.078 18.1971 235.87 15.9045V15.9045Z" fill="#F5F8FA"/>
<path d="M72.2113 197.036L65.3067 201.408L69.4903 193.795C68.3062 192.849 66.841 192.325 65.3261 192.305L65.2151 192.305C64.7363 192.315 64.2577 192.279 63.7856 192.199L61.45 193.683L62.4493 191.861C60.795 191.279 59.3659 190.19 58.3653 188.749L54.187 191.415L56.8251 186.606C54.3838 183.668 51.0899 181.867 47.4626 181.866C43.1161 181.866 39.2442 184.452 36.7439 188.487C36.0025 189.695 34.9545 190.685 33.7066 191.357C32.4587 192.028 31.0554 192.356 29.6397 192.308L29.4088 192.308C24.6095 192.307 20.7193 197.751 20.718 204.471C20.7168 211.191 24.605 216.636 29.4043 216.637C30.4589 216.634 31.4967 216.373 32.4279 215.878C34.0621 215.084 35.8487 214.655 37.6646 214.62C39.4804 214.585 41.2822 214.945 42.9456 215.675C44.3508 216.307 45.8733 216.636 47.4139 216.64C48.9545 216.644 50.4787 216.324 51.8872 215.699C53.5372 214.983 55.3214 214.631 57.1191 214.666C58.9169 214.701 60.6862 215.122 62.3072 215.901C63.2325 216.384 64.2601 216.639 65.3039 216.644C70.1032 216.645 73.9934 211.201 73.9947 204.481C74.0334 201.889 73.4201 199.328 72.2113 197.036V197.036Z" fill="#F5F8FA"/>
<path opacity="0.03" d="M222.88 33.7024C220.373 33.2271 217.782 33.5081 215.435 34.5099C214.029 35.1397 212.506 35.4651 210.966 35.4648C209.426 35.4645 207.903 35.1386 206.497 34.5083C204.834 33.7764 203.032 33.4155 201.216 33.4505C199.4 33.4854 197.613 33.9155 195.98 34.7108C195.046 35.2049 194.007 35.4655 192.952 35.4702C188.689 35.4694 185.143 31.1665 184.407 25.4952C185.26 24.8753 185.984 24.095 186.538 23.1977C189.039 19.167 192.911 16.581 197.257 16.5818C201.604 16.5826 205.435 19.1167 207.929 23.1172C208.675 24.3263 209.722 25.321 210.967 26.0044C212.212 26.6878 213.612 27.0364 215.032 27.0164L215.143 27.0164C218.513 27.0081 221.451 29.7287 222.88 33.7024Z" fill="black"/>
<path opacity="0.03" d="M59.2218 214.834C56.7148 214.358 54.1233 214.639 51.7762 215.641C50.3704 216.271 48.8476 216.596 47.3075 216.596C45.7673 216.596 44.2446 216.27 42.8391 215.639C41.1762 214.908 39.3741 214.547 37.5579 214.582C35.7417 214.617 33.9549 215.047 32.3213 215.842C31.388 216.336 30.3491 216.597 29.2933 216.601C25.0312 216.601 21.4846 212.298 20.7487 206.626C21.6016 206.007 22.3256 205.226 22.8802 204.329C25.3805 200.298 29.2524 197.712 33.5989 197.713C37.9454 197.714 41.7764 200.248 44.2708 204.248C45.0171 205.458 46.0638 206.452 47.3086 207.136C48.5535 207.819 49.954 208.168 51.3736 208.148L51.4846 208.148C54.8543 208.139 57.7929 210.86 59.2218 214.834Z" fill="black"/>
</g>
<defs>
<clipPath id="clip0_14_310">
<rect width="417.147" height="270.744" fill="white" transform="translate(0.0743408 0.691833)"/>
</clipPath>
</defs>
</svg>
